<svg width="67" height="67" viewBox="0 0 67 67" fill="none" xmlns="http://www.w3.org/2000/svg">
<path d="M29.4435 15.9964L11.8359 33.1795L28.9274 50.8759C29.081 51.084 29.2776 51.2566 29.5038 51.3822C29.7299 51.5077 29.9804 51.5831 30.2383 51.6034C30.4962 51.6237 30.7554 51.5883 30.9984 51.4997C31.2414 51.4111 31.4625 51.2714 31.6468 51.0899C31.8311 50.9084 31.9743 50.6894 32.0666 50.4478C32.1589 50.2061 32.1982 49.9475 32.1819 49.6894C32.1655 49.4312 32.0939 49.1796 31.9719 48.9515C31.8498 48.7235 31.6802 48.5243 31.4745 48.3675L18.6876 35.0866L53.2241 35.5976C53.7029 35.6047 54.165 35.4212 54.5085 35.0877C54.8521 34.7541 55.0491 34.2977 55.0562 33.8189C55.0633 33.3401 54.8799 32.8781 54.5463 32.5345C54.2128 32.1909 53.7564 31.9939 53.2776 31.9869L18.7411 31.4759L31.9152 18.5791C32.2578 18.2441 32.4533 17.7868 32.4587 17.3077C32.4641 16.8286 32.279 16.367 31.944 16.0244C31.609 15.6818 31.1517 15.4863 30.6726 15.4809C30.1935 15.4755 29.7319 15.6606 29.3893 15.9956L29.4435 15.9964Z" fill="black"/>
</svg>
