<svg width="52" height="52" viewBox="0 0 52 52" fill="none" xmlns="http://www.w3.org/2000/svg">
<path d="M23.8335 45.5V39C16.5535 38.415 10.8335 32.3267 10.8335 24.9167V23.8333H13.0002V24.9167C13.0002 28.0772 14.2557 31.1082 16.4905 33.343C18.7253 35.5778 21.7563 36.8333 24.9168 36.8333C28.0773 36.8333 31.1084 35.5778 33.3432 33.343C35.578 31.1082 36.8335 28.0772 36.8335 24.9167V23.8333H39.0002V24.9167C39.0002 32.3267 33.2802 38.415 26.0002 39V45.5H23.8335ZM24.9168 6.5C26.3534 6.5 27.7312 7.07068 28.747 8.0865C29.7628 9.10233 30.3335 10.4801 30.3335 11.9167V24.9167C30.3335 26.3533 29.7628 27.731 28.747 28.7468C27.7312 29.7627 26.3534 30.3333 24.9168 30.3333C23.4802 30.3333 22.1025 29.7627 21.0867 28.7468C20.0708 27.731 19.5002 26.3533 19.5002 24.9167V11.9167C19.5002 10.4801 20.0708 9.10233 21.0867 8.0865C22.1025 7.07068 23.4802 6.5 24.9168 6.5ZM24.9168 8.66667C24.0549 8.66667 23.2282 9.00908 22.6187 9.61857C22.0092 10.2281 21.6668 11.0547 21.6668 11.9167V24.9167C21.6668 25.7786 22.0092 26.6053 22.6187 27.2148C23.2282 27.8243 24.0549 28.1667 24.9168 28.1667C25.7788 28.1667 26.6054 27.8243 27.2149 27.2148C27.8244 26.6053 28.1668 25.7786 28.1668 24.9167V11.9167C28.1668 11.0547 27.8244 10.2281 27.2149 9.61857C26.6054 9.00908 25.7788 8.66667 24.9168 8.66667Z" fill="#005C8A"/>
</svg>
